# xmcd CD database file
#
# Track frame offsets:
#	150
#	12667
#	26905
#	44910
#	64345
#	78820
#	94410
#	109127
#	124987
#	141400
#	154615
#	171177
#	186217
#	202642
#	217985
#	233022
#	249240
#	264415
#	278842
#	294160
#	308467
#
# Disc length: 4322 seconds
#
# Revision: 1
# Processed by: cddbd v1.5.1PL2 Copyright (c) Steve Scherf et al.
# Submitted via: CDex 1.51
#
DISCID=2a10e015
DTITLE=Bellamy Brothers - Best Of The Best
DYEAR=1992
DGENRE=Country
TTITLE0=Let Your Love Flow
TTITLE1=If I Said You Had A Beautiful Body (Would You Hold It Against Me)
TTITLE2=Old Hippie
TTITLE3=You Ain't Just Whistlin' Dixie
TTITLE4=Dancin' Cowboys
TTITLE5=Sugar Daddy
TTITLE6=Lovers Live Longer
TTITLE7=Crazy From The Heart
TTITLE8=Feelin' The Feelin'
TTITLE9=Do You Love As Good As You Look
TTITLE10=For All The Wrong Reasons
TTITLE11=Redneck Girl
TTITLE12=When I'm Away From You
TTITLE13=I'd Lie To You For Your Love
TTITLE14=You'll Never Be Sorry
TTITLE15=Sante Fe
TTITLE16=I Need More Of You
TTITLE17=Big Love
TTITLE18=Kids Of The Baby Boom
TTITLE19=Get Into Reggae Couwboy
TTITLE20=Cowboy Beat
EXTD=YEAR: 1992
EXTT0=
EXTT1=
EXTT2=
EXTT3=
EXTT4=
EXTT5=
EXTT6=
EXTT7=
EXTT8=
EXTT9=
EXTT10=
EXTT11=
EXTT12=
EXTT13=
EXTT14=
EXTT15=
EXTT16=
EXTT17=
EXTT18=
EXTT19=
EXTT20=
PLAYORDER=
